<svg version="1.1" xmlns="http://www.w3.org/2000/svg" xmlns:xlink="http://www.w3.org/1999/xlink" width="142.5" height="258" viewBox="0,0,142.5,258"><g transform="translate(-168.75,39.25)"><g data-paper-data="{&quot;isPaintingLayer&quot;:true}" fill-rule="nonzero" stroke-linecap="butt" stroke-linejoin="miter" stroke-miterlimit="10" stroke-dasharray="" stroke-dashoffset="0" style="mix-blend-mode: normal"><path d="M171.5,216v-72h137v72z" fill="#a19bad" stroke="#000000" stroke-width="5.5"/><path d="M220,209.5v-246h40v246z" fill="#a19bad" stroke="#000000" stroke-width="5.5"/><path d="M216.72857,212.60396v-66.03332h59.09322v66.03332z" fill="#a19bad" stroke="none" stroke-width="0"/><path d="M181.74125,151.86043c0,0.65381 -0.47701,1.18382 -1.06544,1.18382c-0.58843,0 -1.06544,-0.53001 -1.06544,-1.18382c0,-0.65381 0.47701,-1.18382 1.06544,-1.18382c0.58843,0 1.06544,0.53001 1.06544,1.18382z" fill="#a19bad" stroke="#000000" stroke-width="3.5"/><path d="M302.51886,151.41485c0,0.65381 -0.47702,1.18382 -1.06544,1.18382c-0.58842,0 -1.06544,-0.53001 -1.06544,-1.18382c0,-0.65381 0.47701,-1.18382 1.06544,-1.18382c0.58842,0 1.06544,0.53001 1.06544,1.18382z" fill="#a19bad" stroke="#000000" stroke-width="3.5"/><path d="M179.90305,209.68676c0,0.65381 -0.47701,1.18382 -1.06544,1.18382c-0.58843,0 -1.06544,-0.53001 -1.06544,-1.18382c0,-0.65381 0.47701,-1.18382 1.06544,-1.18382c0.58843,0 1.06544,0.53001 1.06544,1.18382z" fill="#a19bad" stroke="#000000" stroke-width="3.5"/><path d="M302.81154,209.71471c0,0.65381 -0.47702,1.18382 -1.06544,1.18382c-0.58842,0 -1.06544,-0.53001 -1.06544,-1.18382c0,-0.65381 0.47701,-1.18382 1.06544,-1.18382c0.58842,0 1.06544,0.53001 1.06544,1.18382z" fill="#a19bad" stroke="#000000" stroke-width="3.5"/></g></g></svg>